  0
SECTION
  2
HEADER
  9
$ACADVER
  1
AC1014
  9
$HANDSEED
  5
FFFF
  9
$MEASUREMENT
 70
     1
  0
ENDSEC
  0
SECTION
  2
TABLES
  0
TABLE
  2
VPORT
  5
8
330
0
100
AcDbSymbolTable
 70
     4
  0
VPORT
  5
2E
330
8
100
AcDbSymbolTableRecord
100
AcDbViewportTableRecord
  2
*ACTIVE
 70
     0
 10
0.0
 20
0.0
 11
1.0
 21
1.0
 12
210.0
 22
148.5
 13
0.0
 23
0.0
 14
10.0
 24
10.0
 15
10.0
 25
10.0
 16
0.0
 26
0.0
 36
1.0
 17
0.0
 27
0.0
 37
0.0
 40
341.0
 41
1.24
 42
50.0
 43
0.0
 44
0.0
 50
0.0
 51
0.0
 71
     0
 72
   100
 73
     1
 74
     3
 75
     0
 76
     0
 77
     0
 78
     0
  0
ENDTAB
  0
TABLE
  2
LTYPE
  5
5
330
0
100
AcDbSymbolTable
 70
     1
  0
LTYPE
  5
14
330
5
100
AcDbSymbolTableRecord
100
AcDbLinetypeTableRecord
  2
BYBLOCK
 70
     0
  3

 72
    65
 73
     0
 40
0.0
  0
LTYPE
  5
15
330
5
100
AcDbSymbolTableRecord
100
AcDbLinetypeTableRecord
  2
BYLAYER
 70
     0
  3

 72
    65
 73
     0
 40
0.0
  0
LTYPE
  5
16
330
5
100
AcDbSymbolTableRecord
100
AcDbLinetypeTableRecord
  2
CONTINUOUS
 70
     0
  3
Solid line
 72
    65
 73
     0
 40
0.0
  0
ENDTAB
  0
TABLE
  2
LAYER
  5
2
100
AcDbSymbolTable
 70
4
  0
LAYER
  5
50
100
AcDbSymbolTableRecord
100
AcDbLayerTableRecord
  2
0
 70
0
  6
CONTINUOUS
  0
LAYER
  5
51
100
AcDbSymbolTableRecord
100
AcDbLayerTableRecord
  2
background
 70
0
  6
CONTINUOUS
  0
LAYER
  5
52
100
AcDbSymbolTableRecord
100
AcDbLayerTableRecord
  2
Layer_1
 70
0
  6
CONTINUOUS
  0
LAYER
  5
53
100
AcDbSymbolTableRecord
100
AcDbLayerTableRecord
  2
pcb_overlay
 70
0
  6
CONTINUOUS
  0
ENDTAB
  0
TABLE
  2
STYLE
  5
3
330
0
100
AcDbSymbolTable
 70
     1
  0
STYLE
  5
11
330
3
100
AcDbSymbolTableRecord
100
AcDbTextStyleTableRecord
  2
STANDARD
 70
     0
 40
0.0
 41
1.0
 50
0.0
 71
     0
 42
2.5
  3
txt
  4

  0
ENDTAB
  0
TABLE
  2
VIEW
  5
6
330
0
100
AcDbSymbolTable
 70
     0
  0
ENDTAB
  0
TABLE
  2
UCS
  5
7
330
0
100
AcDbSymbolTable
 70
     0
  0
ENDTAB
  0
TABLE
  2
APPID
  5
9
330
0
100
AcDbSymbolTable
 70
     2
  0
APPID
  5
12
330
9
100
AcDbSymbolTableRecord
100
AcDbRegAppTableRecord
  2
ACAD
 70
     0
  0
ENDTAB
  0
TABLE
  2
DIMSTYLE
  5
A
330
0
100
AcDbSymbolTable
 70
     1
  0
DIMSTYLE
105
27
330
A
100
AcDbSymbolTableRecord
100
AcDbDimStyleTableRecord
  2
ISO-25
 70
     0
  3

  4

  5

  6

  7

 40
1.0
 41
2.5
 42
0.625
 43
3.75
 44
1.25
 45
0.0
 46
0.0
 47
0.0
 48
0.0
140
2.5
141
2.5
142
0.0
143
0.03937007874016
144
1.0
145
0.0
146
1.0
147
0.625
 71
     0
 72
     0
 73
     0
 74
     0
 75
     0
 76
     0
 77
     1
 78
     8
170
     0
171
     3
172
     1
173
     0
174
     0
175
     0
176
     0
177
     0
178
     0
270
     2
271
     2
272
     2
273
     2
274
     3
340
11
275
     0
280
     0
281
     0
282
     0
283
     0
284
     8
285
     0
286
     0
287
     3
288
     0
  0
ENDTAB
  0
TABLE
  2
BLOCK_RECORD
  5
1
330
0
100
AcDbSymbolTable
 70
     1
  0
BLOCK_RECORD
  5
1F
330
1
100
AcDbSymbolTableRecord
100
AcDbBlockTableRecord
  2
*MODEL_SPACE
  0
BLOCK_RECORD
  5
1B
330
1
100
AcDbSymbolTableRecord
100
AcDbBlockTableRecord
  2
*PAPER_SPACE
  0
ENDTAB
  0
ENDSEC
  0
SECTION
  2
BLOCKS
  0
BLOCK
  5
20
330
1F
100
AcDbEntity
  8
0
100
AcDbBlockBegin
  2
*MODEL_SPACE
 70
     0
 10
0.0
 20
0.0
 30
0.0
  3
*MODEL_SPACE
  1

  0
ENDBLK
  5
21
330
1F
100
AcDbEntity
  8
0
100
AcDbBlockEnd
  0
BLOCK
  5
1C
330
1B
100
AcDbEntity
 67
     1
  8
0
100
AcDbBlockBegin
  2
*PAPER_SPACE
  1

  0
ENDBLK
  5
1D
330
1B
100
AcDbEntity
 67
     1
  8
0
100
AcDbBlockEnd
  0
ENDSEC
  0
SECTION
  2
ENTITIES
  0
LWPOLYLINE
  5
100
100
AcDbEntity
  8
background
 62
1
100
AcDbPolyline
 90
5
 70
1
 10
6.835278
 20
292.094215
 30
0.0
 10
204.146974
 20
292.094215
 30
0.0
 10
204.146974
 20
0.000000
 30
0.0
 10
6.835278
 20
0.000000
 30
0.0
 10
6.835278
 20
292.094215
 30
0.0
  0
LWPOLYLINE
  5
101
100
AcDbEntity
  8
Layer_1
 62
1
100
AcDbPolyline
 90
2
 70
0
 10
39.037129
 20
205.073181
 30
0.0
 10
34.583309
 20
197.054189
 30
0.0
  0
LWPOLYLINE
  5
102
100
AcDbEntity
  8
Layer_1
 62
1
100
AcDbPolyline
 90
2
 70
0
 10
39.037129
 20
205.073181
 30
0.0
 10
30.840690
 20
200.974961
 30
0.0
  0
LWPOLYLINE
  5
103
100
AcDbEntity
  8
Layer_1
 62
1
100
AcDbPolyline
 90
2
 70
0
 10
39.037129
 20
205.073181
 30
0.0
 10
29.950279
 20
206.142450
 30
0.0
  0
LWPOLYLINE
  5
104
100
AcDbEntity
  8
Layer_1
 62
1
100
AcDbPolyline
 90
2
 70
0
 10
39.037129
 20
205.073181
 30
0.0
 10
32.089170
 20
210.953281
 30
0.0
  0
LWPOLYLINE
  5
105
100
AcDbEntity
  8
Layer_1
 62
1
100
AcDbPolyline
 90
2
 70
0
 10
39.037129
 20
205.073181
 30
0.0
 10
36.542990
 20
213.804431
 30
0.0
  0
LWPOLYLINE
  5
106
100
AcDbEntity
  8
Layer_1
 62
1
100
AcDbPolyline
 90
2
 70
0
 10
39.037129
 20
205.073181
 30
0.0
 10
41.532679
 20
213.804431
 30
0.0
  0
LWPOLYLINE
  5
107
100
AcDbEntity
  8
Layer_1
 62
1
100
AcDbPolyline
 90
2
 70
0
 10
39.037129
 20
205.073181
 30
0.0
 10
45.986498
 20
210.953281
 30
0.0
  0
LWPOLYLINE
  5
108
100
AcDbEntity
  8
Layer_1
 62
1
100
AcDbPolyline
 90
2
 70
0
 10
39.037129
 20
205.073181
 30
0.0
 10
48.125390
 20
206.142450
 30
0.0
  0
LWPOLYLINE
  5
109
100
AcDbEntity
  8
Layer_1
 62
1
100
AcDbPolyline
 90
2
 70
0
 10
39.037129
 20
205.073181
 30
0.0
 10
47.233920
 20
200.974961
 30
0.0
  0
LWPOLYLINE
  5
10a
100
AcDbEntity
  8
Layer_1
 62
1
100
AcDbPolyline
 90
2
 70
0
 10
39.037129
 20
205.073181
 30
0.0
 10
43.670159
 20
197.054189
 30
0.0
  0
LWPOLYLINE
  5
10b
100
AcDbEntity
  8
Layer_1
 62
1
100
AcDbPolyline
 90
2
 70
0
 10
39.037129
 20
205.073181
 30
0.0
 10
35.118120
 20
198.123811
 30
0.0
  0
LWPOLYLINE
  5
10c
100
AcDbEntity
  8
Layer_1
 62
1
100
AcDbPolyline
 90
2
 70
0
 10
39.037129
 20
205.073181
 30
0.0
 10
34.048851
 20
198.658270
 30
0.0
  0
LWPOLYLINE
  5
10d
100
AcDbEntity
  8
Layer_1
 62
1
100
AcDbPolyline
 90
2
 70
0
 10
39.037129
 20
205.073181
 30
0.0
 10
33.157029
 20
199.548681
 30
0.0
  0
LWPOLYLINE
  5
10e
100
AcDbEntity
  8
Layer_1
 62
1
100
AcDbPolyline
 90
2
 70
0
 10
39.037129
 20
205.073181
 30
0.0
 10
32.444770
 20
200.440150
 30
0.0
  0
LWPOLYLINE
  5
10f
100
AcDbEntity
  8
Layer_1
 62
1
100
AcDbPolyline
 90
2
 70
0
 10
39.037129
 20
205.073181
 30
0.0
 10
31.732159
 20
201.509420
 30
0.0
  0
LWPOLYLINE
  5
110
100
AcDbEntity
  8
Layer_1
 62
1
100
AcDbPolyline
 90
2
 70
0
 10
39.037129
 20
205.073181
 30
0.0
 10
31.375148
 20
202.579042
 30
0.0
  0
LWPOLYLINE
  5
111
100
AcDbEntity
  8
Layer_1
 62
1
100
AcDbPolyline
 90
2
 70
0
 10
39.037129
 20
205.073181
 30
0.0
 10
31.019901
 20
203.826111
 30
0.0
  0
LWPOLYLINE
  5
112
100
AcDbEntity
  8
Layer_1
 62
1
100
AcDbPolyline
 90
2
 70
0
 10
39.037129
 20
205.073181
 30
0.0
 10
31.019901
 20
204.893970
 30
0.0
  0
LWPOLYLINE
  5
113
100
AcDbEntity
  8
Layer_1
 62
1
100
AcDbPolyline
 90
2
 70
0
 10
39.037129
 20
205.073181
 30
0.0
 10
31.019901
 20
205.963239
 30
0.0
  0
LWPOLYLINE
  5
114
100
AcDbEntity
  8
Layer_1
 62
1
100
AcDbPolyline
 90
2
 70
0
 10
39.037129
 20
205.073181
 30
0.0
 10
31.197701
 20
207.032861
 30
0.0
  0
LWPOLYLINE
  5
115
100
AcDbEntity
  8
Layer_1
 62
1
100
AcDbPolyline
 90
2
 70
0
 10
39.037129
 20
205.073181
 30
0.0
 10
31.554359
 20
208.279931
 30
0.0
  0
LWPOLYLINE
  5
116
100
AcDbEntity
  8
Layer_1
 62
1
100
AcDbPolyline
 90
2
 70
0
 10
39.037129
 20
205.073181
 30
0.0
 10
32.089170
 20
209.349200
 30
0.0
  0
LWPOLYLINE
  5
117
100
AcDbEntity
  8
Layer_1
 62
1
100
AcDbPolyline
 90
2
 70
0
 10
39.037129
 20
205.073181
 30
0.0
 10
32.801429
 20
210.240670
 30
0.0
  0
LWPOLYLINE
  5
118
100
AcDbEntity
  8
Layer_1
 62
1
100
AcDbPolyline
 90
2
 70
0
 10
39.037129
 20
205.073181
 30
0.0
 10
33.691840
 20
211.131081
 30
0.0
  0
LWPOLYLINE
  5
119
100
AcDbEntity
  8
Layer_1
 62
1
100
AcDbPolyline
 90
2
 70
0
 10
39.037129
 20
205.073181
 30
0.0
 10
34.583309
 20
211.843339
 30
0.0
  0
LWPOLYLINE
  5
11a
100
AcDbEntity
  8
Layer_1
 62
1
100
AcDbPolyline
 90
2
 70
0
 10
39.037129
 20
205.073181
 30
0.0
 10
35.652579
 20
212.378150
 30
0.0
  0
LWPOLYLINE
  5
11b
100
AcDbEntity
  8
Layer_1
 62
1
100
AcDbPolyline
 90
2
 70
0
 10
39.037129
 20
205.073181
 30
0.0
 10
36.720790
 20
212.912961
 30
0.0
  0
LWPOLYLINE
  5
11c
100
AcDbEntity
  8
Layer_1
 62
1
100
AcDbPolyline
 90
2
 70
0
 10
39.037129
 20
205.073181
 30
0.0
 10
37.969270
 20
213.090761
 30
0.0
  0
LWPOLYLINE
  5
11d
100
AcDbEntity
  8
Layer_1
 62
1
100
AcDbPolyline
 90
2
 70
0
 10
39.037129
 20
205.073181
 30
0.0
 10
39.037129
 20
213.269620
 30
0.0
  0
LWPOLYLINE
  5
11e
100
AcDbEntity
  8
Layer_1
 62
1
100
AcDbPolyline
 90
2
 70
0
 10
39.037129
 20
205.073181
 30
0.0
 10
40.106398
 20
213.090761
 30
0.0
  0
LWPOLYLINE
  5
11f
100
AcDbEntity
  8
Layer_1
 62
1
100
AcDbPolyline
 90
2
 70
0
 10
39.037129
 20
205.073181
 30
0.0
 10
41.353820
 20
212.912961
 30
0.0
  0
LWPOLYLINE
  5
120
100
AcDbEntity
  8
Layer_1
 62
1
100
AcDbPolyline
 90
2
 70
0
 10
39.037129
 20
205.073181
 30
0.0
 10
42.423090
 20
212.378150
 30
0.0
  0
LWPOLYLINE
  5
121
100
AcDbEntity
  8
Layer_1
 62
1
100
AcDbPolyline
 90
2
 70
0
 10
39.037129
 20
205.073181
 30
0.0
 10
43.492359
 20
211.843339
 30
0.0
  0
LWPOLYLINE
  5
122
100
AcDbEntity
  8
Layer_1
 62
1
100
AcDbPolyline
 90
2
 70
0
 10
39.037129
 20
205.073181
 30
0.0
 10
44.382770
 20
211.131081
 30
0.0
  0
LWPOLYLINE
  5
123
100
AcDbEntity
  8
Layer_1
 62
1
100
AcDbPolyline
 90
2
 70
0
 10
39.037129
 20
205.073181
 30
0.0
 10
45.274240
 20
210.240670
 30
0.0
  0
LWPOLYLINE
  5
124
100
AcDbEntity
  8
Layer_1
 62
1
100
AcDbPolyline
 90
2
 70
0
 10
39.037129
 20
205.073181
 30
0.0
 10
45.986498
 20
209.349200
 30
0.0
  0
LWPOLYLINE
  5
125
100
AcDbEntity
  8
Layer_1
 62
1
100
AcDbPolyline
 90
2
 70
0
 10
39.037129
 20
205.073181
 30
0.0
 10
46.521309
 20
208.279931
 30
0.0
  0
LWPOLYLINE
  5
126
100
AcDbEntity
  8
Layer_1
 62
1
100
AcDbPolyline
 90
2
 70
0
 10
39.037129
 20
205.073181
 30
0.0
 10
46.878320
 20
207.032861
 30
0.0
  0
LWPOLYLINE
  5
127
100
AcDbEntity
  8
Layer_1
 62
1
100
AcDbPolyline
 90
2
 70
0
 10
39.037129
 20
205.073181
 30
0.0
 10
47.056120
 20
205.963239
 30
0.0
  0
LWPOLYLINE
  5
128
100
AcDbEntity
  8
Layer_1
 62
1
100
AcDbPolyline
 90
2
 70
0
 10
39.037129
 20
205.073181
 30
0.0
 10
47.056120
 20
204.893970
 30
0.0
  0
LWPOLYLINE
  5
129
100
AcDbEntity
  8
Layer_1
 62
1
100
AcDbPolyline
 90
2
 70
0
 10
39.037129
 20
205.073181
 30
0.0
 10
47.056120
 20
203.826111
 30
0.0
  0
LWPOLYLINE
  5
12a
100
AcDbEntity
  8
Layer_1
 62
1
100
AcDbPolyline
 90
2
 70
0
 10
39.037129
 20
205.073181
 30
0.0
 10
46.699109
 20
202.579042
 30
0.0
  0
LWPOLYLINE
  5
12b
100
AcDbEntity
  8
Layer_1
 62
1
100
AcDbPolyline
 90
2
 70
0
 10
39.037129
 20
205.073181
 30
0.0
 10
46.343509
 20
201.509420
 30
0.0
  0
LWPOLYLINE
  5
12c
100
AcDbEntity
  8
Layer_1
 62
1
100
AcDbPolyline
 90
2
 70
0
 10
39.037129
 20
205.073181
 30
0.0
 10
45.631251
 20
200.440150
 30
0.0
  0
LWPOLYLINE
  5
12d
100
AcDbEntity
  8
Layer_1
 62
1
100
AcDbPolyline
 90
2
 70
0
 10
39.037129
 20
205.073181
 30
0.0
 10
44.917229
 20
199.548681
 30
0.0
  0
LWPOLYLINE
  5
12e
100
AcDbEntity
  8
Layer_1
 62
1
100
AcDbPolyline
 90
2
 70
0
 10
39.037129
 20
205.073181
 30
0.0
 10
44.027170
 20
198.658270
 30
0.0
  0
SPLINE
  5
12f
100
AcDbEntity
  8
Layer_1
 62
1
100
AcDbSpline
 70
8
 71
3
 72
8
 73
4
 74
0
 40
0
 40
0
 40
0
 40
0
 40
1
 40
1
 40
1
 40
1
 10
36.365190
 20
205.073181
 30
0.0
 10
36.365190
 20
206.675850
 30
0.0
 10
37.434459
 20
207.745120
 30
0.0
 10
39.037129
 20
207.745120
 30
0.0
  0
SPLINE
  5
130
100
AcDbEntity
  8
Layer_1
 62
1
100
AcDbSpline
 70
8
 71
3
 72
8
 73
4
 74
0
 40
0
 40
0
 40
0
 40
0
 40
1
 40
1
 40
1
 40
1
 10
39.037129
 20
207.745120
 30
0.0
 10
40.641209
 20
207.745120
 30
0.0
 10
41.710479
 20
206.675850
 30
0.0
 10
41.710479
 20
205.073181
 30
0.0
  0
SPLINE
  5
131
100
AcDbEntity
  8
Layer_1
 62
1
100
AcDbSpline
 70
8
 71
3
 72
8
 73
4
 74
0
 40
0
 40
0
 40
0
 40
0
 40
1
 40
1
 40
1
 40
1
 10
41.710479
 20
205.073181
 30
0.0
 10
41.710479
 20
203.469100
 30
0.0
 10
40.641209
 20
202.399831
 30
0.0
 10
39.037129
 20
202.399831
 30
0.0
  0
SPLINE
  5
132
100
AcDbEntity
  8
Layer_1
 62
1
100
AcDbSpline
 70
8
 71
3
 72
8
 73
4
 74
0
 40
0
 40
0
 40
0
 40
0
 40
1
 40
1
 40
1
 40
1
 10
39.037129
 20
202.399831
 30
0.0
 10
37.434459
 20
202.399831
 30
0.0
 10
36.365190
 20
203.469100
 30
0.0
 10
36.365190
 20
205.073181
 30
0.0
  0
LWPOLYLINE
  5
133
100
AcDbEntity
  8
Layer_1
 62
1
100
AcDbPolyline
 90
2
 70
0
 10
39.037129
 20
205.073181
 30
0.0
 10
43.135348
 20
198.123811
 30
0.0
  0
LWPOLYLINE
  5
134
100
AcDbEntity
  8
Layer_1
 62
1
100
AcDbPolyline
 90
2
 70
0
 10
37.969270
 20
205.073181
 30
0.0
 10
40.106398
 20
205.073181
 30
0.0
  0
SPLINE
  5
135
100
AcDbEntity
  8
Layer_1
 62
7
100
AcDbSpline
 70
8
 71
3
 72
8
 73
4
 74
0
 40
0
 40
0
 40
0
 40
0
 40
1
 40
1
 40
1
 40
1
 10
39.249501
 20
205.018147
 30
0.0
 10
39.249501
 20
204.899614
 30
0.0
 10
39.141904
 20
204.802953
 30
0.0
 10
39.009612
 20
204.802953
 30
0.0
  0
SPLINE
  5
136
100
AcDbEntity
  8
Layer_1
 62
7
100
AcDbSpline
 70
8
 71
3
 72
8
 73
4
 74
0
 40
0
 40
0
 40
0
 40
0
 40
1
 40
1
 40
1
 40
1
 10
39.009612
 20
204.802953
 30
0.0
 10
38.877320
 20
204.802953
 30
0.0
 10
38.769723
 20
204.899614
 30
0.0
 10
38.769723
 20
205.018147
 30
0.0
  0
SPLINE
  5
137
100
AcDbEntity
  8
Layer_1
 62
7
100
AcDbSpline
 70
8
 71
3
 72
8
 73
4
 74
0
 40
0
 40
0
 40
0
 40
0
 40
1
 40
1
 40
1
 40
1
 10
38.769723
 20
205.018147
 30
0.0
 10
38.769723
 20
205.138092
 30
0.0
 10
38.877320
 20
205.234400
 30
0.0
 10
39.009612
 20
205.234400
 30
0.0
  0
SPLINE
  5
138
100
AcDbEntity
  8
Layer_1
 62
7
100
AcDbSpline
 70
8
 71
3
 72
8
 73
4
 74
0
 40
0
 40
0
 40
0
 40
0
 40
1
 40
1
 40
1
 40
1
 10
39.009612
 20
205.234400
 30
0.0
 10
39.141904
 20
205.234400
 30
0.0
 10
39.249501
 20
205.138092
 30
0.0
 10
39.249501
 20
205.018147
 30
0.0
  0
LWPOLYLINE
  5
139
100
AcDbEntity
  8
Layer_1
 62
1
100
AcDbPolyline
 90
2
 70
0
 10
39.037129
 20
204.003911
 30
0.0
 10
39.037129
 20
206.142450
 30
0.0
  0
SPLINE
  5
13a
100
AcDbEntity
  8
Layer_1
 62
1
100
AcDbSpline
 70
8
 71
3
 72
8
 73
4
 74
0
 40
0
 40
0
 40
0
 40
0
 40
1
 40
1
 40
1
 40
1
 10
29.040906
 20
235.222860
 30
0.0
 10
29.040906
 20
236.993804
 30
0.0
 10
30.222006
 20
238.174551
 30
0.0
 10
31.994009
 20
238.174551
 30
0.0
  0
SPLINE
  5
13b
100
AcDbEntity
  8
Layer_1
 62
1
100
AcDbSpline
 70
8
 71
3
 72
8
 73
4
 74
0
 40
0
 40
0
 40
0
 40
0
 40
1
 40
1
 40
1
 40
1
 10
31.994009
 20
238.174551
 30
0.0
 10
33.764953
 20
238.174551
 30
0.0
 10
34.944290
 20
236.993804
 30
0.0
 10
34.944290
 20
235.222860
 30
0.0
  0
SPLINE
  5
13c
100
AcDbEntity
  8
Layer_1
 62
1
100
AcDbSpline
 70
8
 71
3
 72
8
 73
4
 74
0
 40
0
 40
0
 40
0
 40
0
 40
1
 40
1
 40
1
 40
1
 10
34.944290
 20
235.222860
 30
0.0
 10
34.944290
 20
233.452268
 30
0.0
 10
33.764953
 20
232.271168
 30
0.0
 10
31.994009
 20
232.271168
 30
0.0
  0
SPLINE
  5
13d
100
AcDbEntity
  8
Layer_1
 62
1
100
AcDbSpline
 70
8
 71
3
 72
8
 73
4
 74
0
 40
0
 40
0
 40
0
 40
0
 40
1
 40
1
 40
1
 40
1
 10
31.994009
 20
232.271168
 30
0.0
 10
30.222006
 20
232.271168
 30
0.0
 10
29.040906
 20
233.452268
 30
0.0
 10
29.040906
 20
235.222860
 30
0.0
  0
LWPOLYLINE
  5
13e
100
AcDbEntity
  8
Layer_1
 62
7
100
AcDbPolyline
 90
2
 70
1
 10
39.249501
 20
205.018147
 30
0.0
 10
39.249501
 20
205.018147
 30
0.0
  0
LWPOLYLINE
  5
13f
100
AcDbEntity
  8
Layer_1
 62
1
100
AcDbPolyline
 90
2
 70
0
 10
30.813262
 20
235.222860
 30
0.0
 10
33.173698
 20
235.222860
 30
0.0
  0
SPLINE
  5
140
100
AcDbEntity
  8
Layer_1
 62
1
100
AcDbSpline
 70
8
 71
3
 72
8
 73
4
 74
0
 40
0
 40
0
 40
0
 40
0
 40
1
 40
1
 40
1
 40
1
 10
29.040907
 20
174.314091
 30
0.0
 10
29.040907
 20
176.086447
 30
0.0
 10
30.222007
 20
177.265783
 30
0.0
 10
31.994010
 20
177.265783
 30
0.0
  0
SPLINE
  5
141
100
AcDbEntity
  8
Layer_1
 62
1
100
AcDbSpline
 70
8
 71
3
 72
8
 73
4
 74
0
 40
0
 40
0
 40
0
 40
0
 40
1
 40
1
 40
1
 40
1
 10
31.994010
 20
177.265783
 30
0.0
 10
33.764954
 20
177.265783
 30
0.0
 10
34.944290
 20
176.086447
 30
0.0
 10
34.944290
 20
174.314091
 30
0.0
  0
SPLINE
  5
142
100
AcDbEntity
  8
Layer_1
 62
1
100
AcDbSpline
 70
8
 71
3
 72
8
 73
4
 74
0
 40
0
 40
0
 40
0
 40
0
 40
1
 40
1
 40
1
 40
1
 10
34.944290
 20
174.314091
 30
0.0
 10
34.944290
 20
172.544911
 30
0.0
 10
33.764954
 20
171.363811
 30
0.0
 10
31.994010
 20
171.363811
 30
0.0
  0
SPLINE
  5
143
100
AcDbEntity
  8
Layer_1
 62
1
100
AcDbSpline
 70
8
 71
3
 72
8
 73
4
 74
0
 40
0
 40
0
 40
0
 40
0
 40
1
 40
1
 40
1
 40
1
 10
31.994010
 20
171.363811
 30
0.0
 10
30.222007
 20
171.363811
 30
0.0
 10
29.040907
 20
172.544911
 30
0.0
 10
29.040907
 20
174.314091
 30
0.0
  0
LWPOLYLINE
  5
144
100
AcDbEntity
  8
Layer_1
 62
1
100
AcDbPolyline
 90
2
 70
0
 10
31.994009
 20
234.042112
 30
0.0
 10
31.994009
 20
236.403960
 30
0.0
  0
LWPOLYLINE
  5
145
100
AcDbEntity
  8
Layer_1
 62
1
100
AcDbPolyline
 90
2
 70
0
 10
30.813262
 20
174.314091
 30
0.0
 10
33.173699
 20
174.314091
 30
0.0
  0
LWPOLYLINE
  5
146
100
AcDbEntity
  8
Layer_1
 62
1
100
AcDbPolyline
 90
2
 70
0
 10
31.994010
 20
173.134402
 30
0.0
 10
31.994010
 20
175.496602
 30
0.0
  0
SPLINE
  5
147
100
AcDbEntity
  8
Layer_1
 62
1
100
AcDbSpline
 70
8
 71
3
 72
8
 73
4
 74
0
 40
0
 40
0
 40
0
 40
0
 40
1
 40
1
 40
1
 40
1
 10
37.052849
 20
279.661705
 30
0.0
 10
37.052849
 20
279.529413
 30
0.0
 10
36.934315
 20
279.422168
 30
0.0
 10
36.788265
 20
279.422168
 30
0.0
  0
SPLINE
  5
148
100
AcDbEntity
  8
Layer_1
 62
1
100
AcDbSpline
 70
8
 71
3
 72
8
 73
4
 74
0
 40
0
 40
0
 40
0
 40
0
 40
1
 40
1
 40
1
 40
1
 10
36.788265
 20
279.422168
 30
0.0
 10
36.641862
 20
279.422168
 30
0.0
 10
36.524740
 20
279.529413
 30
0.0
 10
36.524740
 20
279.661705
 30
0.0
  0
SPLINE
  5
149
100
AcDbEntity
  8
Layer_1
 62
1
100
AcDbSpline
 70
8
 71
3
 72
8
 73
4
 74
0
 40
0
 40
0
 40
0
 40
0
 40
1
 40
1
 40
1
 40
1
 10
36.524740
 20
279.661705
 30
0.0
 10
36.524740
 20
279.793996
 30
0.0
 10
36.641862
 20
279.901593
 30
0.0
 10
36.788265
 20
279.901593
 30
0.0
  0
SPLINE
  5
14a
100
AcDbEntity
  8
Layer_1
 62
1
100
AcDbSpline
 70
8
 71
3
 72
8
 73
4
 74
0
 40
0
 40
0
 40
0
 40
0
 40
1
 40
1
 40
1
 40
1
 10
36.788265
 20
279.901593
 30
0.0
 10
36.934315
 20
279.901593
 30
0.0
 10
37.052849
 20
279.793996
 30
0.0
 10
37.052849
 20
279.661705
 30
0.0
  0
LWPOLYLINE
  5
14b
100
AcDbEntity
  8
Layer_1
 62
1
100
AcDbPolyline
 90
6
 70
0
 10
27.855398
 20
154.751834
 30
0.0
 10
12.553640
 20
154.751834
 30
0.0
 10
12.553640
 20
282.849847
 30
0.0
 10
54.925956
 20
282.849847
 30
0.0
 10
54.925956
 20
154.751834
 30
0.0
 10
12.553640
 20
154.751834
 30
0.0
  0
SPLINE
  5
14c
100
AcDbEntity
  8
Layer_1
 62
1
100
AcDbSpline
 70
8
 71
3
 72
8
 73
4
 74
0
 40
0
 40
0
 40
0
 40
0
 40
1
 40
1
 40
1
 40
1
 10
31.156132
 20
158.346366
 30
0.0
 10
31.156132
 20
158.253938
 30
0.0
 10
31.059471
 20
158.178091
 30
0.0
 10
30.939880
 20
158.178091
 30
0.0
  0
SPLINE
  5
14d
100
AcDbEntity
  8
Layer_1
 62
1
100
AcDbSpline
 70
8
 71
3
 72
8
 73
4
 74
0
 40
0
 40
0
 40
0
 40
0
 40
1
 40
1
 40
1
 40
1
 10
30.939880
 20
158.178091
 30
0.0
 10
30.821346
 20
158.178091
 30
0.0
 10
30.723274
 20
158.253938
 30
0.0
 10
30.723274
 20
158.346366
 30
0.0
  0
SPLINE
  5
14e
100
AcDbEntity
  8
Layer_1
 62
1
100
AcDbSpline
 70
8
 71
3
 72
8
 73
4
 74
0
 40
0
 40
0
 40
0
 40
0
 40
1
 40
1
 40
1
 40
1
 10
30.723274
 20
158.346366
 30
0.0
 10
30.723274
 20
158.438441
 30
0.0
 10
30.821346
 20
158.514288
 30
0.0
 10
30.939880
 20
158.514288
 30
0.0
  0
SPLINE
  5
14f
100
AcDbEntity
  8
Layer_1
 62
1
100
AcDbSpline
 70
8
 71
3
 72
8
 73
4
 74
0
 40
0
 40
0
 40
0
 40
0
 40
1
 40
1
 40
1
 40
1
 10
30.939880
 20
158.514288
 30
0.0
 10
31.059471
 20
158.514288
 30
0.0
 10
31.156132
 20
158.438441
 30
0.0
 10
31.156132
 20
158.346366
 30
0.0
  0
LWPOLYLINE
  5
150
100
AcDbEntity
  8
Layer_1
 62
1
100
AcDbPolyline
 90
2
 70
1
 10
37.052849
 20
279.661705
 30
0.0
 10
37.052849
 20
279.661705
 30
0.0
  0
LWPOLYLINE
  5
151
100
AcDbEntity
  8
Layer_1
 62
1
100
AcDbPolyline
 90
2
 70
1
 10
31.156132
 20
158.346366
 30
0.0
 10
31.156132
 20
158.346366
 30
0.0
  0
LWPOLYLINE
  5
152
100
AcDbEntity
  8
Layer_1
 62
1
100
AcDbPolyline
 90
2
 70
0
 10
39.037290
 20
249.349848
 30
0.0
 10
34.583470
 20
241.330857
 30
0.0
  0
LWPOLYLINE
  5
153
100
AcDbEntity
  8
Layer_1
 62
1
100
AcDbPolyline
 90
2
 70
0
 10
39.037290
 20
249.349848
 30
0.0
 10
30.840851
 20
245.251629
 30
0.0
  0
LWPOLYLINE
  5
154
100
AcDbEntity
  8
Layer_1
 62
1
100
AcDbPolyline
 90
2
 70
0
 10
39.037290
 20
249.349848
 30
0.0
 10
29.950440
 20
250.419118
 30
0.0
  0
LWPOLYLINE
  5
155
100
AcDbEntity
  8
Layer_1
 62
1
100
AcDbPolyline
 90
2
 70
0
 10
39.037290
 20
249.349848
 30
0.0
 10
32.089331
 20
255.229948
 30
0.0
  0
LWPOLYLINE
  5
156
100
AcDbEntity
  8
Layer_1
 62
1
100
AcDbPolyline
 90
2
 70
0
 10
39.037290
 20
249.349848
 30
0.0
 10
36.543151
 20
258.081098
 30
0.0
  0
LWPOLYLINE
  5
157
100
AcDbEntity
  8
Layer_1
 62
1
100
AcDbPolyline
 90
2
 70
0
 10
39.037290
 20
249.349848
 30
0.0
 10
41.532840
 20
258.081098
 30
0.0
  0
LWPOLYLINE
  5
158
100
AcDbEntity
  8
Layer_1
 62
1
100
AcDbPolyline
 90
2
 70
0
 10
39.037290
 20
249.349848
 30
0.0
 10
45.986659
 20
255.229948
 30
0.0
  0
LWPOLYLINE
  5
159
100
AcDbEntity
  8
Layer_1
 62
1
100
AcDbPolyline
 90
2
 70
0
 10
39.037290
 20
249.349848
 30
0.0
 10
48.125551
 20
250.419118
 30
0.0
  0
LWPOLYLINE
  5
15a
100
AcDbEntity
  8
Layer_1
 62
1
100
AcDbPolyline
 90
2
 70
0
 10
39.037290
 20
249.349848
 30
0.0
 10
47.234081
 20
245.251629
 30
0.0
  0
LWPOLYLINE
  5
15b
100
AcDbEntity
  8
Layer_1
 62
1
100
AcDbPolyline
 90
2
 70
0
 10
39.037290
 20
249.349848
 30
0.0
 10
43.670320
 20
241.330857
 30
0.0
  0
LWPOLYLINE
  5
15c
100
AcDbEntity
  8
Layer_1
 62
1
100
AcDbPolyline
 90
2
 70
0
 10
39.037290
 20
249.349848
 30
0.0
 10
35.118281
 20
242.400479
 30
0.0
  0
LWPOLYLINE
  5
15d
100
AcDbEntity
  8
Layer_1
 62
1
100
AcDbPolyline
 90
2
 70
0
 10
39.037290
 20
249.349848
 30
0.0
 10
34.049012
 20
242.934937
 30
0.0
  0
LWPOLYLINE
  5
15e
100
AcDbEntity
  8
Layer_1
 62
1
100
AcDbPolyline
 90
2
 70
0
 10
39.037290
 20
249.349848
 30
0.0
 10
33.157190
 20
243.825348
 30
0.0
  0
LWPOLYLINE
  5
15f
100
AcDbEntity
  8
Layer_1
 62
1
100
AcDbPolyline
 90
2
 70
0
 10
39.037290
 20
249.349848
 30
0.0
 10
32.444931
 20
244.716818
 30
0.0
  0
LWPOLYLINE
  5
160
100
AcDbEntity
  8
Layer_1
 62
1
100
AcDbPolyline
 90
2
 70
0
 10
39.037290
 20
249.349848
 30
0.0
 10
31.732320
 20
245.786087
 30
0.0
  0
LWPOLYLINE
  5
161
100
AcDbEntity
  8
Layer_1
 62
1
100
AcDbPolyline
 90
2
 70
0
 10
39.037290
 20
249.349848
 30
0.0
 10
31.375309
 20
246.855709
 30
0.0
  0
LWPOLYLINE
  5
162
100
AcDbEntity
  8
Layer_1
 62
1
100
AcDbPolyline
 90
2
 70
0
 10
39.037290
 20
249.349848
 30
0.0
 10
31.020062
 20
248.102779
 30
0.0
  0
LWPOLYLINE
  5
163
100
AcDbEntity
  8
Layer_1
 62
1
100
AcDbPolyline
 90
2
 70
0
 10
39.037290
 20
249.349848
 30
0.0
 10
31.020062
 20
249.170637
 30
0.0
  0
LWPOLYLINE
  5
164
100
AcDbEntity
  8
Layer_1
 62
1
100
AcDbPolyline
 90
2
 70
0
 10
39.037290
 20
249.349848
 30
0.0
 10
31.020062
 20
250.239907
 30
0.0
  0
LWPOLYLINE
  5
165
100
AcDbEntity
  8
Layer_1
 62
1
100
AcDbPolyline
 90
2
 70
0
 10
39.037290
 20
249.349848
 30
0.0
 10
31.197862
 20
251.309529
 30
0.0
  0
LWPOLYLINE
  5
166
100
AcDbEntity
  8
Layer_1
 62
1
100
AcDbPolyline
 90
2
 70
0
 10
39.037290
 20
249.349848
 30
0.0
 10
31.554520
 20
252.556598
 30
0.0
  0
LWPOLYLINE
  5
167
100
AcDbEntity
  8
Layer_1
 62
1
100
AcDbPolyline
 90
2
 70
0
 10
39.037290
 20
249.349848
 30
0.0
 10
32.089331
 20
253.625868
 30
0.0
  0
LWPOLYLINE
  5
168
100
AcDbEntity
  8
Layer_1
 62
1
100
AcDbPolyline
 90
2
 70
0
 10
39.037290
 20
249.349848
 30
0.0
 10
32.801590
 20
254.517337
 30
0.0
  0
LWPOLYLINE
  5
169
100
AcDbEntity
  8
Layer_1
 62
1
100
AcDbPolyline
 90
2
 70
0
 10
39.037290
 20
249.349848
 30
0.0
 10
33.692001
 20
255.407748
 30
0.0
  0
LWPOLYLINE
  5
16a
100
AcDbEntity
  8
Layer_1
 62
1
100
AcDbPolyline
 90
2
 70
0
 10
39.037290
 20
249.349848
 30
0.0
 10
34.583470
 20
256.120007
 30
0.0
  0
LWPOLYLINE
  5
16b
100
AcDbEntity
  8
Layer_1
 62
1
100
AcDbPolyline
 90
2
 70
0
 10
39.037290
 20
249.349848
 30
0.0
 10
35.652740
 20
256.654818
 30
0.0
  0
LWPOLYLINE
  5
16c
100
AcDbEntity
  8
Layer_1
 62
1
100
AcDbPolyline
 90
2
 70
0
 10
39.037290
 20
249.349848
 30
0.0
 10
36.720951
 20
257.189629
 30
0.0
  0
LWPOLYLINE
  5
16d
100
AcDbEntity
  8
Layer_1
 62
1
100
AcDbPolyline
 90
2
 70
0
 10
39.037290
 20
249.349848
 30
0.0
 10
37.969431
 20
257.367429
 30
0.0
  0
LWPOLYLINE
  5
16e
100
AcDbEntity
  8
Layer_1
 62
1
100
AcDbPolyline
 90
2
 70
0
 10
39.037290
 20
249.349848
 30
0.0
 10
39.037290
 20
257.546287
 30
0.0
  0
LWPOLYLINE
  5
16f
100
AcDbEntity
  8
Layer_1
 62
1
100
AcDbPolyline
 90
2
 70
0
 10
39.037290
 20
249.349848
 30
0.0
 10
40.106559
 20
257.367429
 30
0.0
  0
LWPOLYLINE
  5
170
100
AcDbEntity
  8
Layer_1
 62
1
100
AcDbPolyline
 90
2
 70
0
 10
39.037290
 20
249.349848
 30
0.0
 10
41.353981
 20
257.189629
 30
0.0
  0
LWPOLYLINE
  5
171
100
AcDbEntity
  8
Layer_1
 62
1
100
AcDbPolyline
 90
2
 70
0
 10
39.037290
 20
249.349848
 30
0.0
 10
42.423251
 20
256.654818
 30
0.0
  0
LWPOLYLINE
  5
172
100
AcDbEntity
  8
Layer_1
 62
1
100
AcDbPolyline
 90
2
 70
0
 10
39.037290
 20
249.349848
 30
0.0
 10
43.492520
 20
256.120007
 30
0.0
  0
LWPOLYLINE
  5
173
100
AcDbEntity
  8
Layer_1
 62
1
100
AcDbPolyline
 90
2
 70
0
 10
39.037290
 20
249.349848
 30
0.0
 10
44.382931
 20
255.407748
 30
0.0
  0
LWPOLYLINE
  5
174
100
AcDbEntity
  8
Layer_1
 62
1
100
AcDbPolyline
 90
2
 70
0
 10
39.037290
 20
249.349848
 30
0.0
 10
45.274401
 20
254.517337
 30
0.0
  0
LWPOLYLINE
  5
175
100
AcDbEntity
  8
Layer_1
 62
1
100
AcDbPolyline
 90
2
 70
0
 10
39.037290
 20
249.349848
 30
0.0
 10
45.986659
 20
253.625868
 30
0.0
  0
LWPOLYLINE
  5
176
100
AcDbEntity
  8
Layer_1
 62
1
100
AcDbPolyline
 90
2
 70
0
 10
39.037290
 20
249.349848
 30
0.0
 10
46.521470
 20
252.556598
 30
0.0
  0
LWPOLYLINE
  5
177
100
AcDbEntity
  8
Layer_1
 62
1
100
AcDbPolyline
 90
2
 70
0
 10
39.037290
 20
249.349848
 30
0.0
 10
46.878481
 20
251.309529
 30
0.0
  0
LWPOLYLINE
  5
178
100
AcDbEntity
  8
Layer_1
 62
1
100
AcDbPolyline
 90
2
 70
0
 10
39.037290
 20
249.349848
 30
0.0
 10
47.056281
 20
250.239907
 30
0.0
  0
LWPOLYLINE
  5
179
100
AcDbEntity
  8
Layer_1
 62
1
100
AcDbPolyline
 90
2
 70
0
 10
39.037290
 20
249.349848
 30
0.0
 10
47.056281
 20
249.170637
 30
0.0
  0
LWPOLYLINE
  5
17a
100
AcDbEntity
  8
Layer_1
 62
1
100
AcDbPolyline
 90
2
 70
0
 10
39.037290
 20
249.349848
 30
0.0
 10
47.056281
 20
248.102779
 30
0.0
  0
LWPOLYLINE
  5
17b
100
AcDbEntity
  8
Layer_1
 62
1
100
AcDbPolyline
 90
2
 70
0
 10
39.037290
 20
249.349848
 30
0.0
 10
46.699270
 20
246.855709
 30
0.0
  0
LWPOLYLINE
  5
17c
100
AcDbEntity
  8
Layer_1
 62
1
100
AcDbPolyline
 90
2
 70
0
 10
39.037290
 20
249.349848
 30
0.0
 10
46.343670
 20
245.786087
 30
0.0
  0
LWPOLYLINE
  5
17d
100
AcDbEntity
  8
Layer_1
 62
1
100
AcDbPolyline
 90
2
 70
0
 10
39.037290
 20
249.349848
 30
0.0
 10
45.631412
 20
244.716818
 30
0.0
  0
LWPOLYLINE
  5
17e
100
AcDbEntity
  8
Layer_1
 62
1
100
AcDbPolyline
 90
2
 70
0
 10
39.037290
 20
249.349848
 30
0.0
 10
44.917390
 20
243.825348
 30
0.0
  0
LWPOLYLINE
  5
17f
100
AcDbEntity
  8
Layer_1
 62
1
100
AcDbPolyline
 90
2
 70
0
 10
39.037290
 20
249.349848
 30
0.0
 10
44.027331
 20
242.934937
 30
0.0
  0
SPLINE
  5
180
100
AcDbEntity
  8
Layer_1
 62
1
100
AcDbSpline
 70
8
 71
3
 72
8
 73
4
 74
0
 40
0
 40
0
 40
0
 40
0
 40
1
 40
1
 40
1
 40
1
 10
36.365351
 20
249.349848
 30
0.0
 10
36.365351
 20
250.952518
 30
0.0
 10
37.434620
 20
252.021787
 30
0.0
 10
39.037290
 20
252.021787
 30
0.0
  0
SPLINE
  5
181
100
AcDbEntity
  8
Layer_1
 62
1
100
AcDbSpline
 70
8
 71
3
 72
8
 73
4
 74
0
 40
0
 40
0
 40
0
 40
0
 40
1
 40
1
 40
1
 40
1
 10
39.037290
 20
252.021787
 30
0.0
 10
40.641370
 20
252.021787
 30
0.0
 10
41.710640
 20
250.952518
 30
0.0
 10
41.710640
 20
249.349848
 30
0.0
  0
SPLINE
  5
182
100
AcDbEntity
  8
Layer_1
 62
1
100
AcDbSpline
 70
8
 71
3
 72
8
 73
4
 74
0
 40
0
 40
0
 40
0
 40
0
 40
1
 40
1
 40
1
 40
1
 10
41.710640
 20
249.349848
 30
0.0
 10
41.710640
 20
247.745768
 30
0.0
 10
40.641370
 20
246.676498
 30
0.0
 10
39.037290
 20
246.676498
 30
0.0
  0
SPLINE
  5
183
100
AcDbEntity
  8
Layer_1
 62
1
100
AcDbSpline
 70
8
 71
3
 72
8
 73
4
 74
0
 40
0
 40
0
 40
0
 40
0
 40
1
 40
1
 40
1
 40
1
 10
39.037290
 20
246.676498
 30
0.0
 10
37.434620
 20
246.676498
 30
0.0
 10
36.365351
 20
247.745768
 30
0.0
 10
36.365351
 20
249.349848
 30
0.0
  0
LWPOLYLINE
  5
184
100
AcDbEntity
  8
Layer_1
 62
1
100
AcDbPolyline
 90
2
 70
0
 10
39.037290
 20
249.349848
 30
0.0
 10
43.135509
 20
242.400479
 30
0.0
  0
LWPOLYLINE
  5
185
100
AcDbEntity
  8
Layer_1
 62
1
100
AcDbPolyline
 90
2
 70
0
 10
37.969431
 20
249.349848
 30
0.0
 10
40.106559
 20
249.349848
 30
0.0
  0
SPLINE
  5
186
100
AcDbEntity
  8
Layer_1
 62
7
100
AcDbSpline
 70
8
 71
3
 72
8
 73
4
 74
0
 40
0
 40
0
 40
0
 40
0
 40
1
 40
1
 40
1
 40
1
 10
39.249662
 20
249.294815
 30
0.0
 10
39.249662
 20
249.176282
 30
0.0
 10
39.142065
 20
249.079621
 30
0.0
 10
39.009773
 20
249.079621
 30
0.0
  0
SPLINE
  5
187
100
AcDbEntity
  8
Layer_1
 62
7
100
AcDbSpline
 70
8
 71
3
 72
8
 73
4
 74
0
 40
0
 40
0
 40
0
 40
0
 40
1
 40
1
 40
1
 40
1
 10
39.009773
 20
249.079621
 30
0.0
 10
38.877481
 20
249.079621
 30
0.0
 10
38.769884
 20
249.176282
 30
0.0
 10
38.769884
 20
249.294815
 30
0.0
  0
SPLINE
  5
188
100
AcDbEntity
  8
Layer_1
 62
7
100
AcDbSpline
 70
8
 71
3
 72
8
 73
4
 74
0
 40
0
 40
0
 40
0
 40
0
 40
1
 40
1
 40
1
 40
1
 10
38.769884
 20
249.294815
 30
0.0
 10
38.769884
 20
249.414759
 30
0.0
 10
38.877481
 20
249.511068
 30
0.0
 10
39.009773
 20
249.511068
 30
0.0
  0
SPLINE
  5
189
100
AcDbEntity
  8
Layer_1
 62
7
100
AcDbSpline
 70
8
 71
3
 72
8
 73
4
 74
0
 40
0
 40
0
 40
0
 40
0
 40
1
 40
1
 40
1
 40
1
 10
39.009773
 20
249.511068
 30
0.0
 10
39.142065
 20
249.511068
 30
0.0
 10
39.249662
 20
249.414759
 30
0.0
 10
39.249662
 20
249.294815
 30
0.0
  0
LWPOLYLINE
  5
18a
100
AcDbEntity
  8
Layer_1
 62
1
100
AcDbPolyline
 90
2
 70
0
 10
39.037290
 20
248.280579
 30
0.0
 10
39.037290
 20
250.419118
 30
0.0
  0
SPLINE
  5
18b
100
AcDbEntity
  8
Layer_1
 62
1
100
AcDbSpline
 70
8
 71
3
 72
8
 73
4
 74
0
 40
0
 40
0
 40
0
 40
0
 40
1
 40
1
 40
1
 40
1
 10
29.041297
 20
263.126094
 30
0.0
 10
29.041297
 20
264.897039
 30
0.0
 10
30.222397
 20
266.077786
 30
0.0
 10
31.994400
 20
266.077786
 30
0.0
  0
SPLINE
  5
18c
100
AcDbEntity
  8
Layer_1
 62
1
100
AcDbSpline
 70
8
 71
3
 72
8
 73
4
 74
0
 40
0
 40
0
 40
0
 40
0
 40
1
 40
1
 40
1
 40
1
 10
31.994400
 20
266.077786
 30
0.0
 10
33.765344
 20
266.077786
 30
0.0
 10
34.944680
 20
264.897039
 30
0.0
 10
34.944680
 20
263.126094
 30
0.0
  0
SPLINE
  5
18d
100
AcDbEntity
  8
Layer_1
 62
1
100
AcDbSpline
 70
8
 71
3
 72
8
 73
4
 74
0
 40
0
 40
0
 40
0
 40
0
 40
1
 40
1
 40
1
 40
1
 10
34.944680
 20
263.126094
 30
0.0
 10
34.944680
 20
261.355503
 30
0.0
 10
33.765344
 20
260.174403
 30
0.0
 10
31.994400
 20
260.174403
 30
0.0
  0
SPLINE
  5
18e
100
AcDbEntity
  8
Layer_1
 62
1
100
AcDbSpline
 70
8
 71
3
 72
8
 73
4
 74
0
 40
0
 40
0
 40
0
 40
0
 40
1
 40
1
 40
1
 40
1
 10
31.994400
 20
260.174403
 30
0.0
 10
30.222397
 20
260.174403
 30
0.0
 10
29.041297
 20
261.355503
 30
0.0
 10
29.041297
 20
263.126094
 30
0.0
  0
LWPOLYLINE
  5
18f
100
AcDbEntity
  8
Layer_1
 62
7
100
AcDbPolyline
 90
2
 70
1
 10
39.249662
 20
249.294815
 30
0.0
 10
39.249662
 20
249.294815
 30
0.0
  0
LWPOLYLINE
  5
190
100
AcDbEntity
  8
Layer_1
 62
1
100
AcDbPolyline
 90
2
 70
0
 10
30.813653
 20
263.126094
 30
0.0
 10
33.174089
 20
263.126094
 30
0.0
  0
LWPOLYLINE
  5
191
100
AcDbEntity
  8
Layer_1
 62
1
100
AcDbPolyline
 90
2
 70
0
 10
31.994400
 20
261.945347
 30
0.0
 10
31.994400
 20
264.307194
 30
0.0
  0
LWPOLYLINE
  5
192
100
AcDbEntity
  8
Layer_1
 62
1
100
AcDbPolyline
 90
2
 70
0
 10
39.037129
 20
188.362521
 30
0.0
 10
34.583309
 20
180.343529
 30
0.0
  0
LWPOLYLINE
  5
193
100
AcDbEntity
  8
Layer_1
 62
1
100
AcDbPolyline
 90
2
 70
0
 10
39.037129
 20
188.362521
 30
0.0
 10
30.840690
 20
184.264301
 30
0.0
  0
LWPOLYLINE
  5
194
100
AcDbEntity
  8
Layer_1
 62
1
100
AcDbPolyline
 90
2
 70
0
 10
39.037129
 20
188.362521
 30
0.0
 10
29.950279
 20
189.431790
 30
0.0
  0
LWPOLYLINE
  5
195
100
AcDbEntity
  8
Layer_1
 62
1
100
AcDbPolyline
 90
2
 70
0
 10
39.037129
 20
188.362521
 30
0.0
 10
32.089170
 20
194.242621
 30
0.0
  0
LWPOLYLINE
  5
196
100
AcDbEntity
  8
Layer_1
 62
1
100
AcDbPolyline
 90
2
 70
0
 10
39.037129
 20
188.362521
 30
0.0
 10
36.542990
 20
197.093771
 30
0.0
  0
LWPOLYLINE
  5
197
100
AcDbEntity
  8
Layer_1
 62
1
100
AcDbPolyline
 90
2
 70
0
 10
39.037129
 20
188.362521
 30
0.0
 10
41.532679
 20
197.093771
 30
0.0
  0
LWPOLYLINE
  5
198
100
AcDbEntity
  8
Layer_1
 62
1
100
AcDbPolyline
 90
2
 70
0
 10
39.037129
 20
188.362521
 30
0.0
 10
45.986498
 20
194.242621
 30
0.0
  0
LWPOLYLINE
  5
199
100
AcDbEntity
  8
Layer_1
 62
1
100
AcDbPolyline
 90
2
 70
0
 10
39.037129
 20
188.362521
 30
0.0
 10
48.125390
 20
189.431790
 30
0.0
  0
LWPOLYLINE
  5
19a
100
AcDbEntity
  8
Layer_1
 62
1
100
AcDbPolyline
 90
2
 70
0
 10
39.037129
 20
188.362521
 30
0.0
 10
47.233920
 20
184.264301
 30
0.0
  0
LWPOLYLINE
  5
19b
100
AcDbEntity
  8
Layer_1
 62
1
100
AcDbPolyline
 90
2
 70
0
 10
39.037129
 20
188.362521
 30
0.0
 10
43.670159
 20
180.343529
 30
0.0
  0
LWPOLYLINE
  5
19c
100
AcDbEntity
  8
Layer_1
 62
1
100
AcDbPolyline
 90
2
 70
0
 10
39.037129
 20
188.362521
 30
0.0
 10
35.118120
 20
181.413151
 30
0.0
  0
LWPOLYLINE
  5
19d
100
AcDbEntity
  8
Layer_1
 62
1
100
AcDbPolyline
 90
2
 70
0
 10
39.037129
 20
188.362521
 30
0.0
 10
34.048851
 20
181.947610
 30
0.0
  0
LWPOLYLINE
  5
19e
100
AcDbEntity
  8
Layer_1
 62
1
100
AcDbPolyline
 90
2
 70
0
 10
39.037129
 20
188.362521
 30
0.0
 10
33.157029
 20
182.838021
 30
0.0
  0
LWPOLYLINE
  5
19f
100
AcDbEntity
  8
Layer_1
 62
1
100
AcDbPolyline
 90
2
 70
0
 10
39.037129
 20
188.362521
 30
0.0
 10
32.444770
 20
183.729490
 30
0.0
  0
LWPOLYLINE
  5
1a0
100
AcDbEntity
  8
Layer_1
 62
1
100
AcDbPolyline
 90
2
 70
0
 10
39.037129
 20
188.362521
 30
0.0
 10
31.732159
 20
184.798760
 30
0.0
  0
LWPOLYLINE
  5
1a1
100
AcDbEntity
  8
Layer_1
 62
1
100
AcDbPolyline
 90
2
 70
0
 10
39.037129
 20
188.362521
 30
0.0
 10
31.375148
 20
185.868382
 30
0.0
  0
LWPOLYLINE
  5
1a2
100
AcDbEntity
  8
Layer_1
 62
1
100
AcDbPolyline
 90
2
 70
0
 10
39.037129
 20
188.362521
 30
0.0
 10
31.019901
 20
187.115451
 30
0.0
  0
LWPOLYLINE
  5
1a3
100
AcDbEntity
  8
Layer_1
 62
1
100
AcDbPolyline
 90
2
 70
0
 10
39.037129
 20
188.362521
 30
0.0
 10
31.019901
 20
188.183310
 30
0.0
  0
LWPOLYLINE
  5
1a4
100
AcDbEntity
  8
Layer_1
 62
1
100
AcDbPolyline
 90
2
 70
0
 10
39.037129
 20
188.362521
 30
0.0
 10
31.019901
 20
189.252579
 30
0.0
  0
LWPOLYLINE
  5
1a5
100
AcDbEntity
  8
Layer_1
 62
1
100
AcDbPolyline
 90
2
 70
0
 10
39.037129
 20
188.362521
 30
0.0
 10
31.197701
 20
190.322201
 30
0.0
  0
LWPOLYLINE
  5
1a6
100
AcDbEntity
  8
Layer_1
 62
1
100
AcDbPolyline
 90
2
 70
0
 10
39.037129
 20
188.362521
 30
0.0
 10
31.554359
 20
191.569271
 30
0.0
  0
LWPOLYLINE
  5
1a7
100
AcDbEntity
  8
Layer_1
 62
1
100
AcDbPolyline
 90
2
 70
0
 10
39.037129
 20
188.362521
 30
0.0
 10
32.089170
 20
192.638540
 30
0.0
  0
LWPOLYLINE
  5
1a8
100
AcDbEntity
  8
Layer_1
 62
1
100
AcDbPolyline
 90
2
 70
0
 10
39.037129
 20
188.362521
 30
0.0
 10
32.801429
 20
193.530010
 30
0.0
  0
LWPOLYLINE
  5
1a9
100
AcDbEntity
  8
Layer_1
 62
1
100
AcDbPolyline
 90
2
 70
0
 10
39.037129
 20
188.362521
 30
0.0
 10
33.691840
 20
194.420421
 30
0.0
  0
LWPOLYLINE
  5
1aa
100
AcDbEntity
  8
Layer_1
 62
1
100
AcDbPolyline
 90
2
 70
0
 10
39.037129
 20
188.362521
 30
0.0
 10
34.583309
 20
195.132679
 30
0.0
  0
LWPOLYLINE
  5
1ab
100
AcDbEntity
  8
Layer_1
 62
1
100
AcDbPolyline
 90
2
 70
0
 10
39.037129
 20
188.362521
 30
0.0
 10
35.652579
 20
195.667490
 30
0.0
  0
LWPOLYLINE
  5
1ac
100
AcDbEntity
  8
Layer_1
 62
1
100
AcDbPolyline
 90
2
 70
0
 10
39.037129
 20
188.362521
 30
0.0
 10
36.720790
 20
196.202301
 30
0.0
  0
LWPOLYLINE
  5
1ad
100
AcDbEntity
  8
Layer_1
 62
1
100
AcDbPolyline
 90
2
 70
0
 10
39.037129
 20
188.362521
 30
0.0
 10
37.969270
 20
196.380101
 30
0.0
  0
LWPOLYLINE
  5
1ae
100
AcDbEntity
  8
Layer_1
 62
1
100
AcDbPolyline
 90
2
 70
0
 10
39.037129
 20
188.362521
 30
0.0
 10
39.037129
 20
196.558960
 30
0.0
  0
LWPOLYLINE
  5
1af
100
AcDbEntity
  8
Layer_1
 62
1
100
AcDbPolyline
 90
2
 70
0
 10
39.037129
 20
188.362521
 30
0.0
 10
40.106398
 20
196.380101
 30
0.0
  0
LWPOLYLINE
  5
1b0
100
AcDbEntity
  8
Layer_1
 62
1
100
AcDbPolyline
 90
2
 70
0
 10
39.037129
 20
188.362521
 30
0.0
 10
41.353820
 20
196.202301
 30
0.0
  0
LWPOLYLINE
  5
1b1
100
AcDbEntity
  8
Layer_1
 62
1
100
AcDbPolyline
 90
2
 70
0
 10
39.037129
 20
188.362521
 30
0.0
 10
42.423090
 20
195.667490
 30
0.0
  0
LWPOLYLINE
  5
1b2
100
AcDbEntity
  8
Layer_1
 62
1
100
AcDbPolyline
 90
2
 70
0
 10
39.037129
 20
188.362521
 30
0.0
 10
43.492359
 20
195.132679
 30
0.0
  0
LWPOLYLINE
  5
1b3
100
AcDbEntity
  8
Layer_1
 62
1
100
AcDbPolyline
 90
2
 70
0
 10
39.037129
 20
188.362521
 30
0.0
 10
44.382770
 20
194.420421
 30
0.0
  0
LWPOLYLINE
  5
1b4
100
AcDbEntity
  8
Layer_1
 62
1
100
AcDbPolyline
 90
2
 70
0
 10
39.037129
 20
188.362521
 30
0.0
 10
45.274240
 20
193.530010
 30
0.0
  0
LWPOLYLINE
  5
1b5
100
AcDbEntity
  8
Layer_1
 62
1
100
AcDbPolyline
 90
2
 70
0
 10
39.037129
 20
188.362521
 30
0.0
 10
45.986498
 20
192.638540
 30
0.0
  0
LWPOLYLINE
  5
1b6
100
AcDbEntity
  8
Layer_1
 62
1
100
AcDbPolyline
 90
2
 70
0
 10
39.037129
 20
188.362521
 30
0.0
 10
46.521309
 20
191.569271
 30
0.0
  0
LWPOLYLINE
  5
1b7
100
AcDbEntity
  8
Layer_1
 62
1
100
AcDbPolyline
 90
2
 70
0
 10
39.037129
 20
188.362521
 30
0.0
 10
46.878320
 20
190.322201
 30
0.0
  0
LWPOLYLINE
  5
1b8
100
AcDbEntity
  8
Layer_1
 62
1
100
AcDbPolyline
 90
2
 70
0
 10
39.037129
 20
188.362521
 30
0.0
 10
47.056120
 20
189.252579
 30
0.0
  0
LWPOLYLINE
  5
1b9
100
AcDbEntity
  8
Layer_1
 62
1
100
AcDbPolyline
 90
2
 70
0
 10
39.037129
 20
188.362521
 30
0.0
 10
47.056120
 20
188.183310
 30
0.0
  0
LWPOLYLINE
  5
1ba
100
AcDbEntity
  8
Layer_1
 62
1
100
AcDbPolyline
 90
2
 70
0
 10
39.037129
 20
188.362521
 30
0.0
 10
47.056120
 20
187.115451
 30
0.0
  0
LWPOLYLINE
  5
1bb
100
AcDbEntity
  8
Layer_1
 62
1
100
AcDbPolyline
 90
2
 70
0
 10
39.037129
 20
188.362521
 30
0.0
 10
46.699109
 20
185.868382
 30
0.0
  0
LWPOLYLINE
  5
1bc
100
AcDbEntity
  8
Layer_1
 62
1
100
AcDbPolyline
 90
2
 70
0
 10
39.037129
 20
188.362521
 30
0.0
 10
46.343509
 20
184.798760
 30
0.0
  0
LWPOLYLINE
  5
1bd
100
AcDbEntity
  8
Layer_1
 62
1
100
AcDbPolyline
 90
2
 70
0
 10
39.037129
 20
188.362521
 30
0.0
 10
45.631251
 20
183.729490
 30
0.0
  0
LWPOLYLINE
  5
1be
100
AcDbEntity
  8
Layer_1
 62
1
100
AcDbPolyline
 90
2
 70
0
 10
39.037129
 20
188.362521
 30
0.0
 10
44.917229
 20
182.838021
 30
0.0
  0
LWPOLYLINE
  5
1bf
100
AcDbEntity
  8
Layer_1
 62
1
100
AcDbPolyline
 90
2
 70
0
 10
39.037129
 20
188.362521
 30
0.0
 10
44.027170
 20
181.947610
 30
0.0
  0
SPLINE
  5
1c0
100
AcDbEntity
  8
Layer_1
 62
1
100
AcDbSpline
 70
8
 71
3
 72
8
 73
4
 74
0
 40
0
 40
0
 40
0
 40
0
 40
1
 40
1
 40
1
 40
1
 10
36.365190
 20
188.362521
 30
0.0
 10
36.365190
 20
189.965190
 30
0.0
 10
37.434459
 20
191.034460
 30
0.0
 10
39.037129
 20
191.034460
 30
0.0
  0
SPLINE
  5
1c1
100
AcDbEntity
  8
Layer_1
 62
1
100
AcDbSpline
 70
8
 71
3
 72
8
 73
4
 74
0
 40
0
 40
0
 40
0
 40
0
 40
1
 40
1
 40
1
 40
1
 10
39.037129
 20
191.034460
 30
0.0
 10
40.641209
 20
191.034460
 30
0.0
 10
41.710479
 20
189.965190
 30
0.0
 10
41.710479
 20
188.362521
 30
0.0
  0
SPLINE
  5
1c2
100
AcDbEntity
  8
Layer_1
 62
1
100
AcDbSpline
 70
8
 71
3
 72
8
 73
4
 74
0
 40
0
 40
0
 40
0
 40
0
 40
1
 40
1
 40
1
 40
1
 10
41.710479
 20
188.362521
 30
0.0
 10
41.710479
 20
186.758440
 30
0.0
 10
40.641209
 20
185.689171
 30
0.0
 10
39.037129
 20
185.689171
 30
0.0
  0
SPLINE
  5
1c3
100
AcDbEntity
  8
Layer_1
 62
1
100
AcDbSpline
 70
8
 71
3
 72
8
 73
4
 74
0
 40
0
 40
0
 40
0
 40
0
 40
1
 40
1
 40
1
 40
1
 10
39.037129
 20
185.689171
 30
0.0
 10
37.434459
 20
185.689171
 30
0.0
 10
36.365190
 20
186.758440
 30
0.0
 10
36.365190
 20
188.362521
 30
0.0
  0
LWPOLYLINE
  5
1c4
100
AcDbEntity
  8
Layer_1
 62
1
100
AcDbPolyline
 90
2
 70
0
 10
39.037129
 20
188.362521
 30
0.0
 10
43.135348
 20
181.413151
 30
0.0
  0
LWPOLYLINE
  5
1c5
100
AcDbEntity
  8
Layer_1
 62
1
100
AcDbPolyline
 90
2
 70
0
 10
37.969270
 20
188.362521
 30
0.0
 10
40.106398
 20
188.362521
 30
0.0
  0
SPLINE
  5
1c6
100
AcDbEntity
  8
Layer_1
 62
7
100
AcDbSpline
 70
8
 71
3
 72
8
 73
4
 74
0
 40
0
 40
0
 40
0
 40
0
 40
1
 40
1
 40
1
 40
1
 10
39.249501
 20
188.307487
 30
0.0
 10
39.249501
 20
188.188954
 30
0.0
 10
39.141904
 20
188.092293
 30
0.0
 10
39.009612
 20
188.092293
 30
0.0
  0
SPLINE
  5
1c7
100
AcDbEntity
  8
Layer_1
 62
7
100
AcDbSpline
 70
8
 71
3
 72
8
 73
4
 74
0
 40
0
 40
0
 40
0
 40
0
 40
1
 40
1
 40
1
 40
1
 10
39.009612
 20
188.092293
 30
0.0
 10
38.877320
 20
188.092293
 30
0.0
 10
38.769723
 20
188.188954
 30
0.0
 10
38.769723
 20
188.307487
 30
0.0
  0
SPLINE
  5
1c8
100
AcDbEntity
  8
Layer_1
 62
7
100
AcDbSpline
 70
8
 71
3
 72
8
 73
4
 74
0
 40
0
 40
0
 40
0
 40
0
 40
1
 40
1
 40
1
 40
1
 10
38.769723
 20
188.307487
 30
0.0
 10
38.769723
 20
188.427432
 30
0.0
 10
38.877320
 20
188.523740
 30
0.0
 10
39.009612
 20
188.523740
 30
0.0
  0
SPLINE
  5
1c9
100
AcDbEntity
  8
Layer_1
 62
7
100
AcDbSpline
 70
8
 71
3
 72
8
 73
4
 74
0
 40
0
 40
0
 40
0
 40
0
 40
1
 40
1
 40
1
 40
1
 10
39.009612
 20
188.523740
 30
0.0
 10
39.141904
 20
188.523740
 30
0.0
 10
39.249501
 20
188.427432
 30
0.0
 10
39.249501
 20
188.307487
 30
0.0
  0
LWPOLYLINE
  5
1ca
100
AcDbEntity
  8
Layer_1
 62
1
100
AcDbPolyline
 90
2
 70
0
 10
39.037129
 20
187.293251
 30
0.0
 10
39.037129
 20
189.431790
 30
0.0
  0
LWPOLYLINE
  5
1cb
100
AcDbEntity
  8
Layer_1
 62
7
100
AcDbPolyline
 90
2
 70
1
 10
39.249501
 20
188.307487
 30
0.0
 10
39.249501
 20
188.307487
 30
0.0
  0
LWPOLYLINE
  5
1cc
100
AcDbEntity
  8
Layer_1
 62
1
100
AcDbPolyline
 90
2
 70
0
 10
39.037129
 20
221.442070
 30
0.0
 10
34.583309
 20
213.423078
 30
0.0
  0
LWPOLYLINE
  5
1cd
100
AcDbEntity
  8
Layer_1
 62
1
100
AcDbPolyline
 90
2
 70
0
 10
39.037129
 20
221.442070
 30
0.0
 10
30.840690
 20
217.343850
 30
0.0
  0
LWPOLYLINE
  5
1ce
100
AcDbEntity
  8
Layer_1
 62
1
100
AcDbPolyline
 90
2
 70
0
 10
39.037129
 20
221.442070
 30
0.0
 10
29.950279
 20
222.511339
 30
0.0
  0
LWPOLYLINE
  5
1cf
100
AcDbEntity
  8
Layer_1
 62
1
100
AcDbPolyline
 90
2
 70
0
 10
39.037129
 20
221.442070
 30
0.0
 10
32.089170
 20
227.322170
 30
0.0
  0
LWPOLYLINE
  5
1d0
100
AcDbEntity
  8
Layer_1
 62
1
100
AcDbPolyline
 90
2
 70
0
 10
39.037129
 20
221.442070
 30
0.0
 10
36.542990
 20
230.173320
 30
0.0
  0
LWPOLYLINE
  5
1d1
100
AcDbEntity
  8
Layer_1
 62
1
100
AcDbPolyline
 90
2
 70
0
 10
39.037129
 20
221.442070
 30
0.0
 10
41.532679
 20
230.173320
 30
0.0
  0
LWPOLYLINE
  5
1d2
100
AcDbEntity
  8
Layer_1
 62
1
100
AcDbPolyline
 90
2
 70
0
 10
39.037129
 20
221.442070
 30
0.0
 10
45.986498
 20
227.322170
 30
0.0
  0
LWPOLYLINE
  5
1d3
100
AcDbEntity
  8
Layer_1
 62
1
100
AcDbPolyline
 90
2
 70
0
 10
39.037129
 20
221.442070
 30
0.0
 10
48.125390
 20
222.511339
 30
0.0
  0
LWPOLYLINE
  5
1d4
100
AcDbEntity
  8
Layer_1
 62
1
100
AcDbPolyline
 90
2
 70
0
 10
39.037129
 20
221.442070
 30
0.0
 10
47.233920
 20
217.343850
 30
0.0
  0
LWPOLYLINE
  5
1d5
100
AcDbEntity
  8
Layer_1
 62
1
100
AcDbPolyline
 90
2
 70
0
 10
39.037129
 20
221.442070
 30
0.0
 10
43.670159
 20
213.423078
 30
0.0
  0
LWPOLYLINE
  5
1d6
100
AcDbEntity
  8
Layer_1
 62
1
100
AcDbPolyline
 90
2
 70
0
 10
39.037129
 20
221.442070
 30
0.0
 10
35.118120
 20
214.492700
 30
0.0
  0
LWPOLYLINE
  5
1d7
100
AcDbEntity
  8
Layer_1
 62
1
100
AcDbPolyline
 90
2
 70
0
 10
39.037129
 20
221.442070
 30
0.0
 10
34.048851
 20
215.027159
 30
0.0
  0
LWPOLYLINE
  5
1d8
100
AcDbEntity
  8
Layer_1
 62
1
100
AcDbPolyline
 90
2
 70
0
 10
39.037129
 20
221.442070
 30
0.0
 10
33.157029
 20
215.917570
 30
0.0
  0
LWPOLYLINE
  5
1d9
100
AcDbEntity
  8
Layer_1
 62
1
100
AcDbPolyline
 90
2
 70
0
 10
39.037129
 20
221.442070
 30
0.0
 10
32.444770
 20
216.809039
 30
0.0
  0
LWPOLYLINE
  5
1da
100
AcDbEntity
  8
Layer_1
 62
1
100
AcDbPolyline
 90
2
 70
0
 10
39.037129
 20
221.442070
 30
0.0
 10
31.732159
 20
217.878309
 30
0.0
  0
LWPOLYLINE
  5
1db
100
AcDbEntity
  8
Layer_1
 62
1
100
AcDbPolyline
 90
2
 70
0
 10
39.037129
 20
221.442070
 30
0.0
 10
31.375148
 20
218.947931
 30
0.0
  0
LWPOLYLINE
  5
1dc
100
AcDbEntity
  8
Layer_1
 62
1
100
AcDbPolyline
 90
2
 70
0
 10
39.037129
 20
221.442070
 30
0.0
 10
31.019901
 20
220.195000
 30
0.0
  0
LWPOLYLINE
  5
1dd
100
AcDbEntity
  8
Layer_1
 62
1
100
AcDbPolyline
 90
2
 70
0
 10
39.037129
 20
221.442070
 30
0.0
 10
31.019901
 20
221.262859
 30
0.0
  0
LWPOLYLINE
  5
1de
100
AcDbEntity
  8
Layer_1
 62
1
100
AcDbPolyline
 90
2
 70
0
 10
39.037129
 20
221.442070
 30
0.0
 10
31.019901
 20
222.332128
 30
0.0
  0
LWPOLYLINE
  5
1df
100
AcDbEntity
  8
Layer_1
 62
1
100
AcDbPolyline
 90
2
 70
0
 10
39.037129
 20
221.442070
 30
0.0
 10
31.197701
 20
223.401750
 30
0.0
  0
LWPOLYLINE
  5
1e0
100
AcDbEntity
  8
Layer_1
 62
1
100
AcDbPolyline
 90
2
 70
0
 10
39.037129
 20
221.442070
 30
0.0
 10
31.554359
 20
224.648820
 30
0.0
  0
LWPOLYLINE
  5
1e1
100
AcDbEntity
  8
Layer_1
 62
1
100
AcDbPolyline
 90
2
 70
0
 10
39.037129
 20
221.442070
 30
0.0
 10
32.089170
 20
225.718089
 30
0.0
  0
LWPOLYLINE
  5
1e2
100
AcDbEntity
  8
Layer_1
 62
1
100
AcDbPolyline
 90
2
 70
0
 10
39.037129
 20
221.442070
 30
0.0
 10
32.801429
 20
226.609559
 30
0.0
  0
LWPOLYLINE
  5
1e3
100
AcDbEntity
  8
Layer_1
 62
1
100
AcDbPolyline
 90
2
 70
0
 10
39.037129
 20
221.442070
 30
0.0
 10
33.691840
 20
227.499970
 30
0.0
  0
LWPOLYLINE
  5
1e4
100
AcDbEntity
  8
Layer_1
 62
1
100
AcDbPolyline
 90
2
 70
0
 10
39.037129
 20
221.442070
 30
0.0
 10
34.583309
 20
228.212228
 30
0.0
  0
LWPOLYLINE
  5
1e5
100
AcDbEntity
  8
Layer_1
 62
1
100
AcDbPolyline
 90
2
 70
0
 10
39.037129
 20
221.442070
 30
0.0
 10
35.652579
 20
228.747039
 30
0.0
  0
LWPOLYLINE
  5
1e6
100
AcDbEntity
  8
Layer_1
 62
1
100
AcDbPolyline
 90
2
 70
0
 10
39.037129
 20
221.442070
 30
0.0
 10
36.720790
 20
229.281850
 30
0.0
  0
LWPOLYLINE
  5
1e7
100
AcDbEntity
  8
Layer_1
 62
1
100
AcDbPolyline
 90
2
 70
0
 10
39.037129
 20
221.442070
 30
0.0
 10
37.969270
 20
229.459650
 30
0.0
  0
LWPOLYLINE
  5
1e8
100
AcDbEntity
  8
Layer_1
 62
1
100
AcDbPolyline
 90
2
 70
0
 10
39.037129
 20
221.442070
 30
0.0
 10
39.037129
 20
229.638509
 30
0.0
  0
LWPOLYLINE
  5
1e9
100
AcDbEntity
  8
Layer_1
 62
1
100
AcDbPolyline
 90
2
 70
0
 10
39.037129
 20
221.442070
 30
0.0
 10
40.106398
 20
229.459650
 30
0.0
  0
LWPOLYLINE
  5
1ea
100
AcDbEntity
  8
Layer_1
 62
1
100
AcDbPolyline
 90
2
 70
0
 10
39.037129
 20
221.442070
 30
0.0
 10
41.353820
 20
229.281850
 30
0.0
  0
LWPOLYLINE
  5
1eb
100
AcDbEntity
  8
Layer_1
 62
1
100
AcDbPolyline
 90
2
 70
0
 10
39.037129
 20
221.442070
 30
0.0
 10
42.423090
 20
228.747039
 30
0.0
  0
LWPOLYLINE
  5
1ec
100
AcDbEntity
  8
Layer_1
 62
1
100
AcDbPolyline
 90
2
 70
0
 10
39.037129
 20
221.442070
 30
0.0
 10
43.492359
 20
228.212228
 30
0.0
  0
LWPOLYLINE
  5
1ed
100
AcDbEntity
  8
Layer_1
 62
1
100
AcDbPolyline
 90
2
 70
0
 10
39.037129
 20
221.442070
 30
0.0
 10
44.382770
 20
227.499970
 30
0.0
  0
LWPOLYLINE
  5
1ee
100
AcDbEntity
  8
Layer_1
 62
1
100
AcDbPolyline
 90
2
 70
0
 10
39.037129
 20
221.442070
 30
0.0
 10
45.274240
 20
226.609559
 30
0.0
  0
LWPOLYLINE
  5
1ef
100
AcDbEntity
  8
Layer_1
 62
1
100
AcDbPolyline
 90
2
 70
0
 10
39.037129
 20
221.442070
 30
0.0
 10
45.986498
 20
225.718089
 30
0.0
  0
LWPOLYLINE
  5
1f0
100
AcDbEntity
  8
Layer_1
 62
1
100
AcDbPolyline
 90
2
 70
0
 10
39.037129
 20
221.442070
 30
0.0
 10
46.521309
 20
224.648820
 30
0.0
  0
LWPOLYLINE
  5
1f1
100
AcDbEntity
  8
Layer_1
 62
1
100
AcDbPolyline
 90
2
 70
0
 10
39.037129
 20
221.442070
 30
0.0
 10
46.878320
 20
223.401750
 30
0.0
  0
LWPOLYLINE
  5
1f2
100
AcDbEntity
  8
Layer_1
 62
1
100
AcDbPolyline
 90
2
 70
0
 10
39.037129
 20
221.442070
 30
0.0
 10
47.056120
 20
222.332128
 30
0.0
  0
LWPOLYLINE
  5
1f3
100
AcDbEntity
  8
Layer_1
 62
1
100
AcDbPolyline
 90
2
 70
0
 10
39.037129
 20
221.442070
 30
0.0
 10
47.056120
 20
221.262859
 30
0.0
  0
LWPOLYLINE
  5
1f4
100
AcDbEntity
  8
Layer_1
 62
1
100
AcDbPolyline
 90
2
 70
0
 10
39.037129
 20
221.442070
 30
0.0
 10
47.056120
 20
220.195000
 30
0.0
  0
LWPOLYLINE
  5
1f5
100
AcDbEntity
  8
Layer_1
 62
1
100
AcDbPolyline
 90
2
 70
0
 10
39.037129
 20
221.442070
 30
0.0
 10
46.699109
 20
218.947931
 30
0.0
  0
LWPOLYLINE
  5
1f6
100
AcDbEntity
  8
Layer_1
 62
1
100
AcDbPolyline
 90
2
 70
0
 10
39.037129
 20
221.442070
 30
0.0
 10
46.343509
 20
217.878309
 30
0.0
  0
LWPOLYLINE
  5
1f7
100
AcDbEntity
  8
Layer_1
 62
1
100
AcDbPolyline
 90
2
 70
0
 10
39.037129
 20
221.442070
 30
0.0
 10
45.631251
 20
216.809039
 30
0.0
  0
LWPOLYLINE
  5
1f8
100
AcDbEntity
  8
Layer_1
 62
1
100
AcDbPolyline
 90
2
 70
0
 10
39.037129
 20
221.442070
 30
0.0
 10
44.917229
 20
215.917570
 30
0.0
  0
LWPOLYLINE
  5
1f9
100
AcDbEntity
  8
Layer_1
 62
1
100
AcDbPolyline
 90
2
 70
0
 10
39.037129
 20
221.442070
 30
0.0
 10
44.027170
 20
215.027159
 30
0.0
  0
SPLINE
  5
1fa
100
AcDbEntity
  8
Layer_1
 62
1
100
AcDbSpline
 70
8
 71
3
 72
8
 73
4
 74
0
 40
0
 40
0
 40
0
 40
0
 40
1
 40
1
 40
1
 40
1
 10
36.365190
 20
221.442070
 30
0.0
 10
36.365190
 20
223.044739
 30
0.0
 10
37.434459
 20
224.114009
 30
0.0
 10
39.037129
 20
224.114009
 30
0.0
  0
SPLINE
  5
1fb
100
AcDbEntity
  8
Layer_1
 62
1
100
AcDbSpline
 70
8
 71
3
 72
8
 73
4
 74
0
 40
0
 40
0
 40
0
 40
0
 40
1
 40
1
 40
1
 40
1
 10
39.037129
 20
224.114009
 30
0.0
 10
40.641209
 20
224.114009
 30
0.0
 10
41.710479
 20
223.044739
 30
0.0
 10
41.710479
 20
221.442070
 30
0.0
  0
SPLINE
  5
1fc
100
AcDbEntity
  8
Layer_1
 62
1
100
AcDbSpline
 70
8
 71
3
 72
8
 73
4
 74
0
 40
0
 40
0
 40
0
 40
0
 40
1
 40
1
 40
1
 40
1
 10
41.710479
 20
221.442070
 30
0.0
 10
41.710479
 20
219.837989
 30
0.0
 10
40.641209
 20
218.768720
 30
0.0
 10
39.037129
 20
218.768720
 30
0.0
  0
SPLINE
  5
1fd
100
AcDbEntity
  8
Layer_1
 62
1
100
AcDbSpline
 70
8
 71
3
 72
8
 73
4
 74
0
 40
0
 40
0
 40
0
 40
0
 40
1
 40
1
 40
1
 40
1
 10
39.037129
 20
218.768720
 30
0.0
 10
37.434459
 20
218.768720
 30
0.0
 10
36.365190
 20
219.837989
 30
0.0
 10
36.365190
 20
221.442070
 30
0.0
  0
LWPOLYLINE
  5
1fe
100
AcDbEntity
  8
Layer_1
 62
1
100
AcDbPolyline
 90
2
 70
0
 10
39.037129
 20
221.442070
 30
0.0
 10
43.135348
 20
214.492700
 30
0.0
  0
LWPOLYLINE
  5
1ff
100
AcDbEntity
  8
Layer_1
 62
1
100
AcDbPolyline
 90
2
 70
0
 10
37.969270
 20
221.442070
 30
0.0
 10
40.106398
 20
221.442070
 30
0.0
  0
SPLINE
  5
200
100
AcDbEntity
  8
Layer_1
 62
7
100
AcDbSpline
 70
8
 71
3
 72
8
 73
4
 74
0
 40
0
 40
0
 40
0
 40
0
 40
1
 40
1
 40
1
 40
1
 10
39.249501
 20
221.387036
 30
0.0
 10
39.249501
 20
221.268503
 30
0.0
 10
39.141904
 20
221.171842
 30
0.0
 10
39.009612
 20
221.171842
 30
0.0
  0
SPLINE
  5
201
100
AcDbEntity
  8
Layer_1
 62
7
100
AcDbSpline
 70
8
 71
3
 72
8
 73
4
 74
0
 40
0
 40
0
 40
0
 40
0
 40
1
 40
1
 40
1
 40
1
 10
39.009612
 20
221.171842
 30
0.0
 10
38.877320
 20
221.171842
 30
0.0
 10
38.769723
 20
221.268503
 30
0.0
 10
38.769723
 20
221.387036
 30
0.0
  0
SPLINE
  5
202
100
AcDbEntity
  8
Layer_1
 62
7
100
AcDbSpline
 70
8
 71
3
 72
8
 73
4
 74
0
 40
0
 40
0
 40
0
 40
0
 40
1
 40
1
 40
1
 40
1
 10
38.769723
 20
221.387036
 30
0.0
 10
38.769723
 20
221.506981
 30
0.0
 10
38.877320
 20
221.603289
 30
0.0
 10
39.009612
 20
221.603289
 30
0.0
  0
SPLINE
  5
203
100
AcDbEntity
  8
Layer_1
 62
7
100
AcDbSpline
 70
8
 71
3
 72
8
 73
4
 74
0
 40
0
 40
0
 40
0
 40
0
 40
1
 40
1
 40
1
 40
1
 10
39.009612
 20
221.603289
 30
0.0
 10
39.141904
 20
221.603289
 30
0.0
 10
39.249501
 20
221.506981
 30
0.0
 10
39.249501
 20
221.387036
 30
0.0
  0
LWPOLYLINE
  5
204
100
AcDbEntity
  8
Layer_1
 62
1
100
AcDbPolyline
 90
2
 70
0
 10
39.037129
 20
220.372800
 30
0.0
 10
39.037129
 20
222.511339
 30
0.0
  0
LWPOLYLINE
  5
205
100
AcDbEntity
  8
Layer_1
 62
7
100
AcDbPolyline
 90
2
 70
1
 10
39.249501
 20
221.387036
 30
0.0
 10
39.249501
 20
221.387036
 30
0.0
  0
ENDSEC
  0
SECTION
  2
OBJECTS
  0
DICTIONARY
  5
C
330
0
100
AcDbDictionary
  3
ACAD_GROUP
350
D
  3
ACAD_MLINESTYLE
350
17
  0
DICTIONARY
  5
D
330
C
100
AcDbDictionary
  0
DICTIONARY
  5
1A
330
C
100
AcDbDictionary
  0
DICTIONARY
  5
17
330
C
100
AcDbDictionary
  3
STANDARD
350
18
  0
DICTIONARY
  5
19
330
C
100
AcDbDictionary
  0
ENDSEC
  0
EOF
